<?xml version="1.0" encoding="UTF-8"?>
<svg id="svg51560" xmlns="http://www.w3.org/2000/svg" viewBox="0 0 300 300">
  <defs>
    <style>
      .cls-1 {
        fill: #141414;
        stroke-width: 0px;
      }
    </style>
  </defs>
  <path class="cls-1" d="m268.9,235.5c-.2-.2-.5-.4-.7-.6-27.8-27.4-55.4-55-83-82.6-.7-.7-1.2-1.5-3-3.7,6.8-6.3,13.8-12.4,20.4-18.9,22-21.7,43.8-43.6,65.7-65.3.2-.2.3-.3.5-.5V0C192.5,0,116,0,39.6,0c-2.7,0-5.4.2-8.1.3-.2,1.4-.4,2.2-.4,2.9.2,37.7.5,75.4.5,113,0,4.3,1.9,4.9,5.4,4.9,16.7,0,33.3-.1,50,.1,4.7,0,6.2-1.5,6.2-6.2-.2-15.5,0-30.9-.1-46.4,0-4.9,1-7.1,6.6-7,25.6.3,51.2.1,76.7.2,1.8,0,3.6.3,5.5.5.3.6.5,1.2.8,1.7-6,5.7-12,11.3-17.9,17.1-21.6,21.5-43.1,43.1-64.8,64.5-3.4,3.3-3.5,5.3-.2,8.6,16,15.9,31.8,32.1,47.8,48,11.4,11.3,23,22.3,34.5,33.4-.4.7-.8,1.3-1.3,1.9-.9.1-1.9.4-2.8.4-26.6,0-53.1-.1-79.7,0-4.5,0-5.2-2-5.2-5.8,0-15.9-.2-31.7,0-47.6,0-4.7-1.4-6.2-6.1-6.1-16.7.3-33.3.3-50,.2-4,0-5.5,1-5.5,5.4,0,35.9-.2,71.8-.3,107.6,0,8.2,0,8.1,8.1,8.1,76.5,0,153,0,229.5,0v-64.4Z"/>
</svg>