<?xml version="1.0" encoding="UTF-8"?>
<svg id="svg51560" xmlns="http://www.w3.org/2000/svg" viewBox="0 0 300 300">
  <defs>
    <style>
      .cls-1 {
        fill: #7c7c7c;
      }

      .cls-1, .cls-2, .cls-3 {
        stroke-width: 0px;
      }

      .cls-1, .cls-3 {
        fill-rule: evenodd;
      }

      .cls-2, .cls-3 {
        fill: #f5f5f5;
      }
    </style>
  </defs>
  <path class="cls-1" d="m300,34.6v230.8c0,19.1-15.5,34.6-34.6,34.6H34.6c-19.1,0-34.6-15.5-34.6-34.6V34.6C0,15.5,15.5,0,34.6,0h230.8c19.1,0,34.6,15.5,34.6,34.6Z"/>
  <g>
    <path class="cls-3" d="m265.4,46.1v34.6c0,6.4-5.2,11.5-11.6,11.5h-34.6c-6.4,0-11.5-5.2-11.5-11.5v-34.6c0-6.4,5.2-11.5,11.5-11.5h34.6c6.4,0,11.5,5.2,11.6,11.5Z"/>
    <path class="cls-3" d="m265.4,126.9v126.9c0,6.4-5.2,11.5-11.6,11.5H46.2c-6.4,0-11.5-5.2-11.5-11.5v-126.9h26.1c-1.9,7.4-3,15.1-3,23.1,0,51,41.3,92.3,92.3,92.3s92.3-41.3,92.3-92.3-1.1-15.7-3-23.1h26.1Z"/>
  </g>
  <g>
    <path class="cls-2" d="m190.2,181.8c0,.8-.4,1.8-.9,2.4-3.4,4.3-6.8,8.7-10.3,12.9-.8.9-1.4,1.8-1.7,2.8h0c-.4,1.1-.6,2.2-.4,3.5.2,1.4,0,2.8,0,4.3h-46.9c0-1.4,0-2.7,0-4,0-.6,0-1.1,0-1.6,0-1.8-.6-3-2-4.1-5.6-4.6-11.2-9.3-16.8-13.9-1-.8-1.5-1.6-1.5-3,0-7.7,0-15.5,0-23.3h20v13.2h-13.2v6.8h13.5c5.8,11.3,13.5,13.2,22.9,6.1,2.6,1.3,4.9,2.9,7.4,3.6,8.3,2.2,16.3-4,16.4-12.6.1-5.6,0-11.2,0-17h13.3c0,.4.2.8.2,1.2,0,7.7,0,15.4,0,23Z"/>
    <path class="cls-2" d="m129.9,150.6h-13.4v-28c0-2.2,0-4.4,0-6.5s0-3.8,0-5.6c0-3.7,2.9-6.5,6.5-6.7,2.9,0,5.5,1.7,6.5,4.2.2.6.4,1.3.4,2,.1,13.5,0,26.9,0,40.6Z"/>
    <path class="cls-2" d="m190.3,123c0,8.8,0,17.7,0,26.5,0,.3,0,.7,0,1.2h-13.3c0-.4,0-.8,0-1.1,0-12.8,0-25.5,0-38.3v-.7c0-3.6,2.5-6.4,5.9-6.8,3.3-.4,6.4,1.7,7.3,5,.2.6.2,1.2.2,1.9,0,4.1,0,8.1,0,12.2Z"/>
    <path class="cls-2" d="m149.9,167.5c0,2.8.2,5.4,0,7.9-.4,3.4-3.6,5.8-7,5.6-3.3-.2-6.2-2.9-6.2-6.2,0-11.5,0-22.9,0-34.4,0-3.4,3-6.2,6.4-6.3,3.4-.1,6.6,2.3,6.9,5.7.2,2.5,0,5,0,7.6h-6.5v6.7h6.4v6.7h-6.4v6.7h6.5Z"/>
    <path class="cls-2" d="m170.1,174.6c0,3.5-2.9,6.2-6.3,6.3-3.4.2-6.4-2.3-6.9-5.7,0-.5,0-1.1,0-1.7,0-1.9,0-3.9,0-6h6.6v-6.7h-6.5v-6.7h6.5v-6.6h-6.5c0-2.9-.2-5.5,0-8.1.4-3.3,3.6-5.6,6.9-5.4,3.4.2,6.2,3,6.3,6.4,0,11.4,0,22.8,0,34.2Z"/>
  </g>
</svg>